<?xml version="1.0" standalone="no"?>
<!DOCTYPE svg PUBLIC "-//W3C//DTD SVG 20010904//EN"
 "http://www.w3.org/TR/2001/REC-SVG-20010904/DTD/svg10.dtd">
<svg version="1.0" xmlns="http://www.w3.org/2000/svg"
 width="640.000000pt" height="1280.000000pt" viewBox="0 0 640.000000 1280.000000"
 preserveAspectRatio="xMidYMid meet">
<g transform="translate(0.000000,1280.000000) scale(0.100000,-0.100000)"
fill="#000000" stroke="none">
<path d="M3015 12761 c-137 -51 -202 -86 -220 -119 -20 -38 -47 -67 -67 -75
-14 -5 -18 -18 -18 -57 0 -30 -8 -70 -21 -96 -23 -51 -20 -88 12 -140 10 -17
19 -39 19 -47 0 -9 21 -67 46 -129 93 -227 102 -263 113 -413 9 -127 8 -144
-9 -181 -10 -23 -25 -66 -34 -96 -22 -73 -65 -132 -99 -136 -34 -4 -47 -47
-47 -160 l0 -82 30 -6 c47 -10 52 -22 40 -105 -6 -40 -13 -75 -15 -77 -3 -3 1
-12 8 -20 7 -10 13 -53 14 -116 1 -56 2 -119 3 -141 3 -115 -2 -275 -11 -314
-7 -30 -6 -48 1 -55 12 -12 13 -97 0 -151 -7 -31 -6 -43 7 -57 12 -13 14 -28
8 -65 -4 -26 -9 -111 -10 -188 -1 -109 1 -144 12 -157 13 -14 12 -25 -1 -78
-20 -76 -20 -94 -1 -110 12 -10 13 -28 8 -89 -3 -42 -9 -83 -14 -92 -5 -10 -1
-19 13 -28 16 -10 19 -19 14 -49 -18 -111 -18 -124 -6 -147 9 -16 10 -41 5
-82 -4 -32 -6 -78 -6 -103 1 -25 2 -70 3 -101 1 -42 -4 -65 -20 -93 -15 -26
-25 -66 -32 -126 -18 -180 -59 -213 -347 -284 -198 -49 -573 -181 -708 -249
-60 -30 -88 -54 -185 -161 -63 -69 -120 -128 -127 -130 -7 -3 -13 -17 -13 -31
0 -39 51 -65 125 -65 78 0 145 19 520 145 305 103 475 145 582 145 63 0 78
-20 87 -116 4 -43 14 -142 22 -219 10 -103 16 -461 24 -1340 15 -1719 31
-2318 79 -2820 12 -121 39 -413 62 -650 40 -432 151 -1552 189 -1915 22 -209
37 -419 47 -647 l6 -143 27 0 c37 0 39 11 46 275 4 121 10 227 15 236 8 16 25
156 79 664 16 154 34 307 40 340 5 33 14 107 20 165 6 58 25 222 42 365 16
143 34 298 39 345 6 47 23 204 39 350 46 414 80 891 115 1600 11 229 15 565
15 1345 0 572 4 1130 10 1240 5 110 14 297 20 415 15 311 30 473 44 488 19 20
250 45 310 33 28 -5 74 -13 101 -16 82 -10 182 -44 310 -103 219 -100 440
-136 570 -91 72 24 95 48 95 99 0 32 -6 43 -43 73 -51 41 -270 153 -417 212
-181 72 -535 172 -749 210 -79 14 -161 35 -182 45 -62 32 -69 50 -69 176 0 98
-2 113 -20 129 -33 30 -53 137 -31 160 6 6 6 48 -2 112 -10 92 -9 104 6 121
10 11 15 25 12 33 -13 37 -22 145 -12 157 13 16 18 285 6 334 -7 26 -6 45 2
60 15 27 19 231 6 326 -8 62 -7 75 7 91 15 16 15 22 1 67 -19 63 -19 99 1 129
12 19 13 31 5 62 -14 49 -14 146 -1 159 8 8 8 25 1 55 -14 59 -14 142 0 156 9
9 9 27 2 70 -6 32 -10 117 -9 188 l3 130 32 15 33 14 -4 109 c-3 102 -5 110
-28 128 -81 61 -95 95 -129 307 -19 115 -19 128 -5 190 9 37 59 171 112 297
115 275 119 303 64 420 -66 140 -206 246 -377 287 -124 30 -132 30 -240 -11z"/>
</g>
</svg>
